<?xml version="1.0" standalone="no"?>
<!DOCTYPE svg PUBLIC "-//W3C//DTD SVG 20010904//EN"
 "http://www.w3.org/TR/2001/REC-SVG-20010904/DTD/svg10.dtd">
<svg version="1.0" xmlns="http://www.w3.org/2000/svg"
 width="1363.000000pt" height="1363.000000pt" viewBox="0 0 1363.000000 1363.000000"
 preserveAspectRatio="xMidYMid meet">
<metadata>
Created by potrace 1.11, written by Peter Selinger 2001-2013
</metadata>
<g transform="translate(0.000000,1363.000000) scale(0.100000,-0.100000)"
fill="#000000" stroke="none">
<path d="M6764 13569 c-3 -5 -9 -7 -14 -4 -11 7 -79 -24 -104 -47 -11 -10 -26
-18 -33 -18 -7 0 -13 -5 -13 -12 0 -6 -3 -9 -6 -5 -5 5 -27 -10 -59 -40 -8 -7
-20 -13 -28 -13 -9 0 -17 -4 -19 -8 -1 -5 -32 -26 -68 -48 -36 -21 -67 -41
-70 -44 -9 -9 -65 -34 -72 -32 -5 1 -8 -2 -8 -7 0 -6 -120 -72 -140 -76 -3 -1
-36 -17 -75 -35 -38 -19 -79 -35 -89 -37 -11 -2 -25 -8 -33 -14 -7 -6 -13 -8
-13 -4 0 4 -6 3 -12 -3 -14 -10 -184 -65 -205 -65 -7 0 -13 -4 -13 -7 0 -7
-57 -24 -72 -21 -4 0 -18 -3 -30 -8 -23 -8 -92 -20 -153 -26 -16 -1 -30 -4
-30 -5 0 -1 -14 -3 -31 -5 -18 -2 -56 -6 -85 -9 -145 -16 -227 -20 -369 -19
-160 2 -177 4 -197 16 -6 4 -14 3 -18 -3 -4 -6 -12 -7 -18 -3 -7 4 -23 8 -37
9 -14 1 -25 2 -25 4 0 1 -18 3 -40 4 -22 2 -40 4 -40 6 0 1 -11 3 -25 4 -26 2
-144 24 -170 33 -8 2 -17 5 -20 5 -3 0 -16 5 -30 10 -14 5 -34 12 -45 14 -11
2 -29 8 -40 13 -11 5 -56 21 -100 36 -44 16 -97 37 -119 47 -21 11 -48 21 -59
24 -11 2 -24 9 -29 16 -4 7 -8 9 -8 3 0 -7 -3 -7 -8 0 -6 8 -76 46 -92 50 -3
0 -20 11 -39 22 -19 12 -38 20 -43 17 -4 -3 -8 -1 -8 4 0 5 -20 20 -45 33 -25
13 -45 27 -45 31 0 5 -6 8 -13 8 -7 0 -29 11 -48 26 -99 74 -193 80 -244 16
-11 -14 -28 -32 -37 -41 -10 -8 -18 -19 -18 -23 0 -7 -21 -36 -47 -63 -7 -8
-13 -16 -13 -20 0 -5 -63 -90 -93 -125 -7 -8 -25 -34 -41 -57 -16 -24 -33 -43
-38 -43 -5 0 -6 -5 -3 -10 3 -6 -1 -13 -9 -16 -9 -3 -16 -12 -16 -19 0 -7 -4
-15 -8 -17 -4 -1 -18 -20 -31 -40 -12 -21 -26 -38 -31 -38 -4 0 -13 -13 -20
-30 -7 -16 -15 -30 -19 -30 -4 0 -15 -15 -25 -34 -10 -19 -25 -37 -32 -40 -8
-3 -14 -10 -14 -17 0 -6 -16 -30 -35 -53 -19 -24 -35 -48 -35 -55 0 -6 -7 -14
-15 -17 -8 -4 -15 -11 -15 -16 0 -6 -12 -25 -27 -43 -16 -17 -53 -66 -83 -108
-30 -43 -58 -77 -63 -77 -4 0 -6 -4 -3 -9 4 -5 2 -11 -2 -13 -4 -1 -23 -25
-42 -53 -18 -27 -36 -52 -40 -55 -14 -11 -51 -70 -44 -70 4 0 -3 -9 -16 -20
-13 -11 -19 -20 -14 -20 5 0 1 -5 -8 -11 -10 -5 -18 -16 -18 -23 0 -8 -7 -17
-16 -20 -9 -4 -14 -9 -11 -13 4 -3 -3 -14 -14 -24 -11 -9 -20 -20 -19 -23 1
-9 -46 -76 -51 -73 -2 1 -3 0 -2 -2 4 -7 -208 -298 -227 -311 -4 -3 -10 -15
-14 -28 -4 -12 -12 -20 -17 -17 -5 4 -9 0 -9 -7 0 -7 -11 -26 -25 -42 -14 -16
-25 -32 -25 -36 0 -3 -8 -15 -18 -26 -9 -10 -40 -50 -67 -89 -27 -38 -53 -71
-57 -73 -4 -2 -8 -10 -8 -18 0 -8 -4 -14 -8 -14 -4 0 -16 -15 -27 -32 -10 -18
-24 -39 -31 -45 -7 -7 -22 -28 -34 -48 -12 -19 -26 -35 -31 -35 -5 0 -9 -9 -9
-20 0 -11 -4 -20 -8 -20 -12 0 -43 -69 -48 -106 -2 -19 -5 -37 -6 -41 -5 -23
80 -210 113 -250 6 -7 8 -13 3 -13 -5 0 -4 -4 1 -8 15 -10 35 -49 35 -67 0 -8
5 -15 11 -15 5 0 7 -4 4 -10 -3 -5 -1 -10 4 -10 6 0 11 -3 10 -7 -2 -17 14
-53 23 -53 6 0 8 -9 5 -20 -3 -11 -1 -20 4 -20 9 0 40 -65 36 -78 -1 -4 -6 -6
-10 -4 -5 1 -6 -2 -2 -8 3 -6 11 -8 16 -5 7 5 22 -18 34 -55 1 -3 8 -18 15
-35 7 -16 12 -36 11 -44 -1 -8 2 -10 10 -5 9 5 10 2 6 -9 -3 -10 -2 -17 4 -17
6 0 7 -4 4 -10 -3 -5 -1 -10 5 -10 6 0 8 -4 5 -10 -3 -5 -1 -10 5 -10 7 0 10
-6 7 -12 -2 -7 -10 -12 -16 -10 -7 1 -10 -2 -6 -7 3 -6 13 -7 22 -4 11 4 14 2
11 -8 -3 -8 2 -20 11 -27 12 -10 13 -14 3 -19 -10 -4 -8 -9 5 -21 10 -10 20
-26 21 -37 2 -11 8 -24 12 -30 4 -5 18 -44 30 -85 12 -41 27 -81 32 -87 7 -9
7 -13 -1 -13 -7 0 -3 -13 10 -32 13 -17 17 -28 10 -24 -8 5 -6 -2 4 -18 10
-14 14 -26 10 -26 -4 0 -2 -6 4 -13 6 -8 12 -22 14 -33 1 -10 7 -25 11 -33 6
-9 5 -12 -2 -7 -6 3 -4 -7 4 -24 9 -16 13 -34 10 -39 -4 -5 -2 -11 3 -13 5 -1
10 -16 12 -33 2 -16 6 -34 9 -40 4 -5 13 -37 20 -70 7 -33 17 -64 22 -69 4 -6
8 -22 8 -37 0 -15 4 -39 10 -54 8 -20 7 -24 -3 -19 -8 5 -7 2 2 -9 7 -10 14
-33 15 -51 0 -19 4 -38 9 -42 4 -4 0 -19 -10 -33 -15 -24 -15 -25 0 -12 15 12
17 11 17 -13 0 -19 -4 -25 -12 -21 -7 4 -6 1 2 -7 9 -7 15 -25 14 -40 -2 -16
2 -28 9 -28 8 0 8 -3 2 -8 -14 -10 -17 -32 -4 -32 8 0 7 -6 -2 -17 -8 -9 -9
-14 -2 -10 8 5 12 -6 13 -35 2 -84 6 -117 13 -124 4 -4 2 -13 -4 -21 -9 -9 -8
-13 0 -13 15 0 14 -73 -1 -89 -7 -7 -8 -12 -3 -11 22 5 29 -1 15 -10 -11 -7
-11 -10 -2 -10 9 0 10 -5 2 -19 -7 -14 -6 -21 3 -25 9 -5 9 -7 -1 -12 -6 -3
-9 -10 -6 -16 4 -6 6 -47 4 -92 -1 -44 -3 -91 -3 -103 -1 -13 -3 -23 -6 -23
-4 0 -6 -19 -7 -43 0 -23 -3 -69 -7 -102 -4 -33 -10 -89 -13 -125 -5 -62 -9
-91 -18 -162 -11 -75 -16 -105 -27 -148 -6 -25 -13 -54 -14 -65 -2 -11 -4 -20
-5 -20 -2 0 -8 -25 -16 -65 -9 -51 -12 -65 -14 -65 -2 0 -5 -18 -16 -85 -4
-25 -8 -47 -9 -50 0 -3 -4 -21 -8 -40 -10 -48 -16 -77 -22 -97 -14 -53 -26
-100 -30 -118 -7 -28 -27 -128 -29 -140 -1 -5 -5 -15 -9 -22 -4 -6 -3 -15 3
-18 7 -4 8 -11 1 -18 -5 -7 -12 -25 -15 -42 -3 -16 -8 -43 -12 -60 -3 -16 -6
-37 -7 -45 0 -8 -4 -20 -8 -26 -5 -6 -10 -23 -11 -38 -1 -14 -5 -26 -8 -26 -3
0 -5 -10 -6 -22 0 -13 -4 -39 -8 -58 -8 -36 -15 -86 -21 -130 -4 -37 -17 -122
-22 -145 -2 -11 -6 -32 -9 -47 -2 -16 -7 -43 -10 -60 -3 -18 -7 -42 -9 -53 -2
-11 -4 -20 -5 -20 -1 0 -3 -11 -5 -25 -2 -14 -8 -58 -14 -98 -6 -39 -10 -75
-10 -80 1 -4 0 -9 -1 -12 -5 -14 -9 -184 -9 -430 0 -350 2 -419 12 -413 4 2 7
-12 7 -31 0 -19 4 -46 10 -61 8 -20 7 -24 -3 -19 -9 6 -9 5 0 -7 7 -9 13 -30
15 -47 1 -18 6 -32 10 -32 5 0 8 -12 8 -28 0 -42 3 -62 10 -62 3 0 7 -15 9
-33 4 -40 9 -72 11 -72 2 0 7 -28 13 -62 2 -12 6 -26 10 -29 4 -4 7 -20 7 -36
0 -15 4 -28 8 -28 4 0 8 -8 9 -17 2 -26 8 -45 20 -68 5 -11 8 -26 6 -32 -3 -7
0 -13 6 -13 6 0 11 -10 11 -23 0 -13 4 -27 10 -33 5 -5 11 -22 12 -37 1 -15 6
-27 11 -27 5 0 7 -9 4 -20 -3 -11 -2 -20 3 -20 4 0 17 -17 27 -39 17 -34 18
-40 4 -49 -14 -9 -13 -10 4 -7 14 2 21 -3 22 -15 1 -9 9 -35 19 -56 9 -21 18
-43 18 -47 1 -4 8 -12 16 -17 8 -5 11 -10 7 -10 -5 0 1 -16 13 -35 12 -19 18
-35 14 -35 -4 0 1 -10 12 -22 13 -14 14 -19 4 -14 -10 5 -9 3 2 -6 9 -8 18
-21 20 -28 2 -8 9 -21 16 -28 7 -8 10 -18 7 -23 -4 -5 -1 -9 4 -9 6 0 11 -9
11 -21 0 -13 4 -18 12 -13 8 5 9 2 5 -9 -3 -10 -2 -17 3 -17 5 0 12 -11 16
-25 3 -14 10 -23 14 -20 4 3 11 -2 14 -11 3 -8 2 -12 -4 -9 -6 3 -10 1 -10 -4
0 -6 7 -11 16 -11 11 0 15 -6 11 -20 -3 -11 -2 -18 3 -15 4 3 13 -1 19 -9 9
-11 9 -15 -1 -19 -8 -4 -7 -6 5 -6 9 -1 17 -7 17 -15 0 -8 4 -16 9 -18 5 -1
11 -10 13 -18 2 -8 12 -23 22 -33 10 -9 15 -17 11 -17 -5 0 1 -9 13 -21 12
-11 20 -24 17 -29 -3 -4 1 -11 7 -13 10 -4 9 -8 -2 -17 -12 -9 -11 -10 8 -5
16 5 22 2 22 -9 0 -9 5 -16 10 -16 6 0 10 -7 10 -15 0 -8 5 -15 10 -15 6 0 10
-4 10 -10 0 -5 9 -21 21 -34 12 -13 20 -27 19 -31 -1 -4 8 -15 19 -24 11 -10
18 -21 14 -25 -3 -3 1 -6 10 -6 10 0 17 -8 17 -21 0 -11 5 -17 10 -14 6 3 10
-1 10 -9 0 -8 7 -22 16 -30 8 -9 13 -20 9 -26 -3 -5 0 -8 7 -5 7 3 24 -11 37
-30 13 -19 34 -47 47 -62 40 -45 44 -52 44 -63 0 -6 4 -8 10 -5 6 3 10 1 10
-5 0 -6 13 -25 30 -43 16 -18 30 -35 30 -39 0 -4 9 -9 20 -13 11 -3 19 -9 19
-13 -3 -20 2 -32 11 -27 6 3 10 0 10 -7 1 -7 19 -26 40 -43 21 -16 39 -34 40
-39 0 -4 11 -17 25 -28 14 -11 22 -24 19 -30 -4 -6 -3 -8 3 -5 10 6 63 -38 63
-53 0 -6 4 -10 10 -10 9 0 42 -28 136 -117 25 -24 50 -43 55 -43 6 0 7 -4 4
-10 -3 -5 3 -10 14 -10 26 0 27 -15 4 -29 -10 -6 -13 -11 -8 -11 6 0 16 5 22
11 9 9 18 5 37 -14 14 -14 26 -23 26 -20 0 3 9 -4 20 -17 11 -13 20 -20 20
-17 0 4 8 -1 18 -10 11 -10 17 -22 14 -27 -3 -5 2 -6 12 -3 10 4 19 1 22 -8 3
-8 15 -17 27 -21 12 -4 35 -21 51 -38 16 -17 26 -25 21 -17 -5 10 -4 12 3 7 7
-4 12 -15 12 -24 0 -14 2 -14 9 -3 7 11 10 11 17 -1 9 -13 49 -42 69 -49 12
-3 28 -16 61 -46 13 -12 24 -20 24 -18 0 6 99 -55 123 -75 10 -8 23 -15 30
-15 7 -1 11 -7 9 -14 -1 -7 2 -10 7 -7 5 4 43 -14 85 -38 41 -24 78 -41 82
-38 4 4 4 1 0 -5 -4 -7 -2 -13 4 -13 6 0 8 -5 4 -12 -5 -9 -2 -9 9 1 9 7 17 9
17 5 0 -5 25 -20 55 -33 30 -13 55 -28 55 -34 0 -6 3 -7 7 -4 3 4 12 -1 20
-11 8 -9 12 -11 8 -4 -3 6 -1 12 4 12 6 0 11 -4 11 -10 0 -5 9 -10 20 -10 11
0 23 -6 26 -14 3 -8 12 -12 20 -9 8 3 14 0 14 -6 0 -6 7 -11 15 -11 8 0 15 -5
15 -11 0 -6 6 -9 14 -6 8 3 20 -1 26 -9 7 -8 19 -14 27 -14 8 0 21 -7 30 -15
8 -8 19 -13 24 -10 5 4 9 2 9 -2 0 -5 9 -14 21 -21 17 -11 20 -11 13 0 -4 7 2
5 13 -5 12 -10 29 -20 38 -21 9 -1 21 -9 26 -17 7 -12 9 -12 9 0 0 11 4 9 15
-5 8 -10 15 -15 15 -11 0 5 17 -1 37 -11 45 -24 75 -36 86 -34 4 1 7 -3 7 -9
0 -5 4 -8 8 -5 5 3 23 -4 40 -15 18 -10 37 -19 43 -19 6 0 17 -7 26 -15 8 -8
18 -13 23 -10 5 3 25 -4 45 -15 19 -11 42 -20 50 -20 7 0 17 -5 21 -12 5 -7 3
-8 -6 -3 -9 5 -11 4 -6 -4 4 -6 12 -9 17 -5 5 3 17 0 26 -8 12 -9 14 -9 9 -1
-4 7 6 5 23 -4 16 -10 27 -21 25 -25 -3 -4 2 -5 11 -2 8 4 21 1 29 -5 7 -6 16
-8 19 -4 4 3 9 -2 13 -11 3 -9 9 -14 13 -11 4 2 24 -5 44 -15 21 -11 39 -20
42 -20 3 0 8 0 12 0 3 0 -2 -10 -13 -22 l-19 -23 22 19 c22 18 60 16 49 -3 -3
-5 3 -7 14 -4 11 3 20 0 20 -6 0 -6 6 -11 13 -11 19 0 67 -24 67 -33 0 -5 4
-6 9 -2 13 7 43 -24 35 -37 -4 -7 -2 -8 5 -4 6 4 9 12 5 17 -3 5 24 -6 61 -26
37 -19 73 -35 81 -35 8 0 14 -4 14 -10 0 -5 4 -10 10 -10 5 0 35 -12 67 -27
32 -15 61 -26 66 -25 4 1 7 -5 7 -14 0 -8 4 -12 10 -9 6 3 10 2 10 -4 0 -6 7
-7 17 -4 11 4 14 3 9 -5 -4 -8 0 -12 11 -12 21 -1 55 -24 48 -33 -3 -4 -2 -5
1 -2 9 6 84 -35 104 -56 8 -9 21 -14 29 -11 8 3 11 0 7 -7 -4 -6 -2 -11 4 -11
6 0 8 -5 4 -12 -4 -7 -3 -8 4 -4 16 10 74 -22 66 -36 -4 -6 -3 -8 3 -5 11 7
56 -27 47 -36 -3 -3 3 -4 13 -3 10 0 17 -5 15 -13 -2 -8 3 -11 12 -8 9 4 19 1
23 -6 5 -7 21 -21 36 -30 19 -12 27 -24 23 -34 -5 -13 -4 -14 8 -4 12 10 16 8
21 -8 3 -12 12 -21 18 -21 7 0 19 -9 27 -19 7 -11 17 -18 22 -15 4 3 8 1 8 -5
0 -5 30 -39 66 -76 37 -38 63 -73 60 -81 -3 -9 0 -11 11 -7 12 5 14 3 8 -7 -5
-8 -4 -11 3 -6 5 3 24 -5 40 -19 29 -24 31 -24 41 -8 7 12 10 13 11 4 0 -15
100 86 100 101 0 5 5 6 10 3 6 -3 10 1 10 10 0 11 5 15 14 12 10 -4 13 -1 9 9
-3 7 0 14 7 14 6 0 9 4 6 9 -3 5 1 12 10 15 10 4 13 2 8 -6 -4 -7 -3 -8 4 -4
7 4 12 11 12 17 0 12 37 49 50 49 6 0 9 3 9 8 -3 19 2 25 11 12 7 -11 10 -11
10 -2 0 17 81 92 100 92 5 0 14 9 20 20 6 11 18 20 26 20 9 0 12 -5 8 -12 -4
-7 -3 -8 4 -4 6 4 8 14 5 23 -4 10 -2 14 4 10 6 -4 13 -4 15 0 4 11 76 64 85
64 5 0 17 8 28 18 24 22 67 46 78 43 4 -1 7 2 7 8 0 5 6 10 14 10 8 0 16 4 18
9 2 5 10 11 18 13 8 2 17 6 20 10 3 4 16 9 28 11 12 2 25 7 29 12 5 4 1 5 -7
0 -10 -5 -9 -2 3 11 15 16 19 17 27 4 8 -13 10 -12 10 3 0 10 4 16 9 12 6 -3
14 3 20 12 6 10 11 15 11 10 0 -4 10 -1 23 8 13 8 27 12 30 8 4 -3 7 1 7 11 0
10 5 14 12 10 6 -4 17 1 24 10 7 10 14 16 16 15 1 -1 20 6 41 16 33 15 40 16
48 4 8 -11 9 -9 7 6 -2 14 2 20 15 19 9 -1 17 3 17 8 0 6 7 7 16 4 8 -3 12 -2
9 4 -6 10 7 14 34 11 7 -2 10 3 6 8 -4 7 6 14 24 17 16 4 32 13 35 21 3 8 10
12 16 8 5 -3 20 1 33 10 13 8 27 12 30 8 4 -3 7 0 7 7 0 7 3 11 6 7 3 -3 25 5
47 17 23 13 50 22 59 21 10 -2 16 2 15 8 -1 7 6 11 16 9 9 -2 17 2 17 8 0 5 9
10 20 10 11 0 20 5 20 11 0 6 9 9 20 6 11 -3 18 -2 15 2 -5 9 38 31 60 31 8 0
15 5 15 10 0 6 3 9 8 8 4 -1 23 6 42 14 89 41 111 49 122 42 7 -4 8 -3 4 4
-10 16 6 15 24 0 12 -11 12 -10 1 4 -10 14 -9 18 8 28 12 6 21 8 21 4 0 -3 20
6 45 20 24 15 47 26 50 26 3 0 18 6 34 14 22 12 31 12 40 3 10 -9 11 -8 5 7
-5 13 -4 17 4 12 7 -4 12 -2 12 5 0 6 8 9 20 6 11 -3 18 -1 15 3 -3 5 11 14
30 20 19 6 35 16 35 21 0 6 5 7 10 4 6 -3 10 0 10 7 0 9 3 9 10 -2 6 -10 10
-11 10 -2 0 6 7 12 16 12 9 0 12 5 8 13 -4 6 -4 9 1 5 4 -4 14 -3 22 3 7 6 13
9 13 5 0 -3 23 8 51 24 28 17 47 25 43 18 -4 -7 1 -6 12 3 33 28 115 70 125
63 5 -3 9 -2 8 3 -3 20 2 27 11 13 8 -13 10 -13 10 2 0 11 6 16 20 13 11 -2
23 1 26 7 4 7 2 8 -4 4 -7 -4 -12 -5 -12 -2 0 3 10 10 21 17 17 9 20 8 14 -3
-3 -7 0 -5 9 6 8 10 19 15 25 11 6 -3 11 1 11 10 0 12 5 15 17 11 10 -4 14 -4
10 0 -9 10 43 35 56 27 5 -3 7 -1 3 5 -10 17 13 25 32 10 15 -12 16 -11 3 4
-11 16 -10 19 10 28 25 10 42 21 94 55 16 11 37 18 45 16 8 -1 12 0 8 5 -8 8
32 41 45 36 4 -1 7 3 7 9 0 5 4 8 8 5 5 -3 15 4 22 15 8 10 20 19 27 19 7 0
13 5 13 11 0 5 4 8 8 5 5 -3 14 4 22 14 8 10 17 17 22 14 4 -3 8 0 8 6 0 7 7
9 16 6 8 -3 12 -2 9 4 -3 6 -1 10 5 10 6 0 9 4 6 9 -3 5 1 12 10 15 10 4 13 2
8 -7 -5 -6 7 3 25 21 19 18 40 31 47 28 9 -3 11 0 7 11 -4 11 -2 14 5 9 7 -4
12 -2 12 4 0 7 7 9 16 6 8 -3 13 -2 10 3 -3 5 19 28 49 52 30 24 55 47 55 52
0 4 4 6 8 3 5 -3 15 4 22 15 8 10 20 19 27 19 7 0 13 5 13 10 0 6 8 10 17 10
9 0 14 3 11 6 -8 7 34 50 45 46 4 -1 7 3 7 9 0 5 5 7 10 4 6 -4 9 -2 8 3 -3
11 98 112 113 112 5 0 8 3 8 7 -3 20 2 24 15 14 11 -9 16 -9 22 0 4 8 3 9 -4
5 -7 -4 -12 -2 -12 4 0 15 25 40 41 40 7 0 10 3 6 6 -3 3 22 33 56 67 34 34
62 64 62 67 0 3 19 25 43 49 23 24 42 48 42 53 0 5 5 6 10 3 6 -3 10 0 10 7 0
7 15 30 34 50 19 20 31 40 27 44 -3 4 2 4 12 1 11 -4 16 -3 12 4 -8 12 14 41
26 33 5 -3 6 1 4 9 -3 7 3 21 14 31 11 10 18 23 14 29 -3 6 -1 7 5 3 7 -4 12
-1 12 7 0 8 7 18 16 21 9 3 12 11 8 18 -5 8 -2 9 10 5 10 -4 15 -3 11 4 -8 12
14 41 26 33 5 -3 6 2 3 10 -3 9 -1 16 5 16 7 0 17 13 22 30 6 16 15 27 20 24
5 -3 9 1 9 9 0 7 9 23 20 35 11 12 20 26 20 33 0 6 7 8 16 5 14 -5 15 -4 4 9
-10 12 -10 15 4 15 10 0 14 5 11 10 -3 6 0 17 7 25 31 34 38 45 31 45 -4 0 -1
5 7 10 8 5 16 14 16 20 1 5 2 15 3 21 0 6 7 9 15 6 10 -4 13 0 11 14 -2 11 2
22 10 26 8 3 13 8 10 13 -2 4 5 17 16 28 10 12 19 23 18 24 -3 8 25 58 33 58
4 0 7 3 6 8 -1 4 4 20 11 36 8 21 16 26 29 21 13 -5 14 -3 6 5 -14 14 -6 53
10 47 7 -3 13 6 14 21 1 14 7 31 13 38 6 8 8 14 3 14 -5 0 -3 4 4 9 7 4 15 17
16 27 2 10 9 18 16 16 6 -1 9 2 6 7 -4 5 -2 21 4 36 9 24 12 26 28 14 13 -11
13 -9 -2 9 -17 19 -17 22 -3 22 10 0 14 5 11 15 -4 8 -1 15 6 15 6 0 9 4 6 9
-11 16 5 40 22 34 13 -4 14 -2 4 4 -12 9 -13 32 -2 43 10 10 50 116 50 133 0
9 4 17 8 17 5 0 9 6 10 13 2 22 7 42 15 54 5 7 5 13 1 13 -3 0 -1 7 6 15 7 8
10 15 6 15 -3 0 0 15 7 33 15 35 17 42 17 58 0 5 4 8 8 5 5 -3 7 10 6 29 -2
19 1 37 6 40 5 3 7 12 3 20 -3 9 1 15 8 15 11 0 11 3 -1 10 -10 6 -11 10 -2
10 6 0 11 3 11 8 -1 4 0 10 1 15 5 16 8 28 9 48 0 12 5 17 12 13 8 -4 8 -1 1
12 -11 22 9 79 23 67 5 -5 4 0 -3 9 -11 14 -10 21 3 42 14 21 14 26 4 26 -12
0 -12 2 -1 9 8 4 13 11 13 15 -1 3 -1 7 0 9 1 3 7 77 9 134 2 30 8 53 14 53 6
0 5 4 -2 9 -15 9 -15 20 0 39 7 7 7 12 1 12 -6 0 -8 15 -6 33 8 61 8 137 0
137 -5 0 -5 5 -1 11 8 13 7 175 -1 189 -3 5 -1 11 4 14 5 3 6 21 1 40 -4 18
-3 41 2 50 6 10 5 16 -2 16 -8 0 -8 6 0 20 6 11 7 20 3 20 -4 0 -8 28 -9 63
-1 68 -12 232 -19 287 -3 19 -7 49 -9 65 -3 17 -7 44 -11 60 -9 43 -15 75 -21
115 -3 19 -8 44 -11 55 -4 11 -8 31 -9 45 -1 14 -6 59 -13 100 -6 41 -13 93
-15 115 -3 22 -8 51 -11 65 -3 14 -8 34 -10 45 -16 72 -21 89 -34 134 -6 19
-9 37 -6 39 3 3 1 10 -4 16 -5 6 -10 27 -12 46 -2 19 -5 40 -8 45 -5 10 -9 25
-15 55 -8 50 -19 96 -25 105 -3 6 -6 15 -8 20 -10 46 -13 59 -19 77 -3 11 -8
31 -10 44 -2 13 -6 34 -9 46 -2 13 -6 38 -9 56 -3 17 -8 47 -11 65 -3 17 -8
43 -10 57 -2 14 -6 36 -10 50 -3 14 -8 36 -11 50 -3 14 -7 33 -10 42 -12 40
-27 119 -28 146 -1 12 -3 22 -6 22 -3 0 -7 15 -9 33 -1 17 -4 50 -7 72 -9 102
-13 150 -19 285 -11 220 -11 260 0 260 7 0 7 3 0 8 -15 11 -17 30 -4 54 6 11
7 18 1 14 -6 -3 -9 4 -8 18 0 13 3 23 6 21 3 -2 5 38 5 88 0 115 4 148 19 141
6 -3 2 2 -8 10 -11 9 -15 16 -9 16 6 0 8 11 5 26 -3 16 -1 25 5 21 5 -3 10 0
10 8 0 8 -3 15 -7 15 -12 0 -4 38 11 56 9 11 9 15 2 10 -9 -5 -13 0 -13 14 0
14 4 19 13 14 7 -5 6 0 -3 11 -14 17 -13 18 5 12 18 -6 18 -6 3 6 -11 8 -14
18 -8 27 4 7 7 22 5 33 -3 13 0 17 10 13 8 -3 17 -1 20 5 4 5 3 9 -2 8 -4 -1
-15 -1 -22 0 -12 1 -12 4 -3 13 7 7 12 23 12 36 0 16 4 21 13 16 9 -6 9 -5 0
8 -7 8 -10 18 -6 22 4 3 8 12 9 19 15 86 29 128 47 139 8 5 7 8 -5 8 -15 0
-15 3 2 37 13 28 15 40 7 45 -9 6 -9 8 0 8 7 0 12 3 12 8 -4 25 2 42 14 36 9
-5 9 -4 1 5 -13 14 -7 51 7 51 5 0 6 6 3 14 -3 8 -1 17 5 21 6 3 11 17 11 31
0 13 5 24 11 24 6 0 8 7 5 16 -5 12 -2 15 10 10 14 -5 15 -4 4 9 -9 10 -9 19
-2 28 10 12 12 17 12 38 0 5 4 8 9 5 5 -4 7 4 3 16 -4 16 -2 19 9 13 12 -7 12
-6 1 7 -15 18 -1 34 21 23 6 -4 3 1 -7 9 -12 10 -15 16 -7 16 7 0 11 6 8 13
-3 7 1 21 9 31 7 11 11 24 7 29 -4 7 1 8 12 3 15 -5 16 -4 6 8 -8 10 -9 16 -1
21 5 3 10 15 10 26 0 10 4 19 8 19 7 0 11 16 14 58 1 6 5 12 10 12 4 0 8 9 8
20 0 11 4 20 8 20 4 0 8 10 9 22 1 11 7 24 13 28 6 4 10 11 8 16 -1 5 3 19 10
30 6 12 8 24 5 28 -3 3 -1 6 5 6 7 0 12 7 12 15 0 8 4 15 10 15 5 0 7 7 4 15
-4 8 -1 15 6 15 6 0 8 5 5 10 -3 6 -1 10 5 10 6 0 8 5 5 10 -3 6 -1 10 4 10 6
0 11 6 11 14 0 7 7 26 14 42 8 15 13 31 11 35 -3 4 2 9 10 13 8 3 15 11 15 18
1 19 46 109 55 108 4 -1 9 1 12 4 4 3 0 6 -8 6 -9 0 -10 3 -3 8 5 4 16 22 23
39 7 18 18 30 24 26 6 -3 7 -1 3 6 -4 6 -2 18 4 26 7 8 9 15 4 15 -5 0 -4 4 2
8 5 4 24 37 42 74 38 79 43 140 17 203 -12 28 -107 169 -117 173 -4 2 -8 10
-8 18 0 8 -7 17 -15 20 -8 4 -12 10 -9 15 3 5 0 9 -5 9 -6 0 -11 7 -11 15 0 8
-4 15 -8 15 -5 0 -20 17 -33 38 -57 86 -123 177 -131 180 -4 2 -8 10 -8 18 0
8 -4 14 -8 14 -4 0 -16 13 -25 30 -10 16 -23 35 -30 42 -7 7 -37 47 -67 88
-30 41 -59 78 -65 82 -5 4 -6 8 -2 8 4 0 -2 10 -13 23 -12 12 -30 37 -41 55
-12 17 -26 32 -31 32 -6 0 -9 3 -5 6 6 6 -38 72 -58 86 -5 4 -7 8 -2 8 4 0 -1
8 -10 19 -25 27 -52 62 -71 94 -9 15 -20 27 -25 27 -4 0 -5 4 -2 10 3 5 -3 15
-15 22 -11 7 -20 21 -20 30 0 10 -7 18 -16 18 -8 0 -12 5 -9 10 3 6 1 10 -5
10 -6 0 -9 4 -6 8 3 5 -4 15 -15 22 -10 8 -19 20 -19 27 0 7 -10 23 -22 36
-31 33 -72 87 -80 106 -4 9 -7 12 -8 6 0 -5 -9 7 -19 28 -9 20 -20 35 -22 32
-3 -3 -12 7 -20 23 -8 15 -16 29 -19 32 -3 3 -16 22 -30 42 -14 21 -28 38 -32
38 -5 0 -8 5 -8 11 0 6 -6 16 -12 23 -7 7 -22 25 -33 41 -11 15 -27 35 -35 44
-8 9 -29 39 -47 66 -18 28 -41 60 -53 73 -11 12 -18 22 -15 22 7 0 -40 64 -77
105 -16 17 -28 36 -28 42 0 7 -9 18 -20 25 -11 7 -20 17 -20 21 0 5 -10 22
-22 37 -13 15 -30 37 -38 50 -8 12 -20 28 -25 34 -6 6 -27 36 -48 67 -80 117
-127 153 -192 144 -39 -5 -165 -71 -165 -86 0 -6 -4 -8 -9 -4 -5 3 -13 0 -16
-5 -4 -6 -17 -16 -28 -21 -31 -14 -62 -33 -80 -47 -9 -7 -25 -14 -36 -15 -12
-1 -21 -5 -21 -10 0 -8 -63 -38 -76 -36 -4 0 -10 -3 -13 -8 -9 -12 -71 -43
-87 -43 -8 0 -14 -5 -14 -12 0 -6 -3 -9 -6 -6 -3 4 -31 -5 -62 -19 -31 -14
-84 -34 -117 -45 -33 -10 -67 -22 -75 -25 -8 -4 -18 -7 -22 -8 -5 -2 -9 -3
-10 -5 -3 -2 -20 -6 -53 -14 -11 -2 -20 -5 -20 -6 0 -3 -71 -19 -115 -26 -19
-3 -46 -8 -60 -10 -33 -7 -116 -16 -162 -18 -21 0 -38 -3 -38 -6 0 -12 -319
-15 -455 -5 -118 8 -160 12 -160 15 0 1 -20 3 -45 5 -25 1 -45 4 -45 5 0 1
-11 3 -25 5 -71 8 -154 26 -222 48 -27 8 -48 13 -48 10 0 -3 -7 1 -17 8 -9 8
-17 13 -17 11 -1 -2 -8 -1 -16 1 -147 47 -194 63 -240 84 -30 14 -56 25 -57
25 -9 -2 -279 142 -285 151 -4 7 -8 8 -8 3 0 -4 -12 0 -27 10 -16 10 -40 24
-55 32 -16 7 -28 18 -28 23 0 6 -4 8 -8 5 -5 -3 -18 4 -30 14 -12 11 -25 20
-30 20 -5 0 -17 9 -27 20 -10 11 -22 20 -27 20 -5 0 -18 9 -30 20 -12 11 -28
20 -35 20 -7 0 -13 3 -13 8 0 6 -21 17 -75 37 -33 12 -64 14 -71 4z"/>
<path d="M1675 10599 c-4 -6 -5 -12 -2 -15 2 -3 7 2 10 11 7 17 1 20 -8 4z"/>
<path d="M11850 10556 c0 -2 7 -7 16 -10 8 -3 12 -2 9 4 -6 10 -25 14 -25 6z"/>
<path d="M1670 10510 c0 -5 5 -10 11 -10 5 0 7 5 4 10 -3 6 -8 10 -11 10 -2 0
-4 -4 -4 -10z"/>
<path d="M11805 10470 c-3 -6 1 -7 9 -4 18 7 21 14 7 14 -6 0 -13 -4 -16 -10z"/>
<path d="M11870 10469 c0 -5 5 -7 10 -4 6 3 10 8 10 11 0 2 -4 4 -10 4 -5 0
-10 -5 -10 -11z"/>
<path d="M11830 10351 c0 -6 4 -13 10 -16 6 -3 7 1 4 9 -7 18 -14 21 -14 7z"/>
<path d="M11746 10188 c3 -5 10 -6 15 -3 13 9 11 12 -6 12 -8 0 -12 -4 -9 -9z"/>
<path d="M11589 9793 c-13 -16 -12 -17 4 -4 9 7 17 15 17 17 0 8 -8 3 -21 -13z"/>
<path d="M2026 9632 c-3 -5 1 -9 9 -9 8 0 12 4 9 9 -3 4 -7 8 -9 8 -2 0 -6 -4
-9 -8z"/>
<path d="M11476 9557 c3 -10 9 -15 12 -12 3 3 0 11 -7 18 -10 9 -11 8 -5 -6z"/>
<path d="M11610 4536 c0 -2 7 -7 16 -10 8 -3 12 -2 9 4 -6 10 -25 14 -25 6z"/>
<path d="M11547 4069 c7 -7 15 -10 18 -7 3 3 -2 9 -12 12 -14 6 -15 5 -6 -5z"/>
<path d="M2240 3750 c-9 -6 -10 -10 -3 -10 6 0 15 5 18 10 8 12 4 12 -15 0z"/>
<path d="M11406 3708 c3 -5 10 -6 15 -3 13 9 11 12 -6 12 -8 0 -12 -4 -9 -9z"/>
<path d="M11356 3672 c-3 -5 1 -9 9 -9 8 0 12 4 9 9 -3 4 -7 8 -9 8 -2 0 -6
-4 -9 -8z"/>
<path d="M11235 3510 c-3 -5 -1 -10 4 -10 6 0 11 5 11 10 0 6 -2 10 -4 10 -3
0 -8 -4 -11 -10z"/>
<path d="M11150 3430 c0 -5 5 -10 11 -10 5 0 7 5 4 10 -3 6 -8 10 -11 10 -2 0
-4 -4 -4 -10z"/>
<path d="M11235 3430 c3 -5 8 -10 11 -10 2 0 4 5 4 10 0 6 -5 10 -11 10 -5 0
-7 -4 -4 -10z"/>
<path d="M10915 3110 c3 -5 8 -10 11 -10 2 0 4 5 4 10 0 6 -5 10 -11 10 -5 0
-7 -4 -4 -10z"/>
<path d="M10990 3109 c0 -5 5 -7 10 -4 6 3 10 8 10 11 0 2 -4 4 -10 4 -5 0
-10 -5 -10 -11z"/>
<path d="M2790 3009 c0 -5 5 -7 10 -4 6 3 10 8 10 11 0 2 -4 4 -10 4 -5 0 -10
-5 -10 -11z"/>
<path d="M2630 2891 c0 -6 4 -13 10 -16 6 -3 7 1 4 9 -7 18 -14 21 -14 7z"/>
<path d="M10719 2828 c-5 -18 -6 -38 -1 -34 7 8 12 36 6 36 -2 0 -4 -1 -5 -2z"/>
<path d="M2710 2789 c0 -5 5 -7 10 -4 6 3 10 8 10 11 0 2 -4 4 -10 4 -5 0 -10
-5 -10 -11z"/>
<path d="M2946 2468 c3 -5 10 -6 15 -3 13 9 11 12 -6 12 -8 0 -12 -4 -9 -9z"/>
<path d="M10116 2357 c3 -10 9 -15 12 -12 3 3 0 11 -7 18 -10 9 -11 8 -5 -6z"/>
<path d="M10160 2270 c-9 -6 -10 -10 -3 -10 6 0 15 5 18 10 8 12 4 12 -15 0z"/>
<path d="M3510 2111 c0 -6 4 -13 10 -16 6 -3 7 1 4 9 -7 18 -14 21 -14 7z"/>
<path d="M3813 2079 c-2 -23 3 -25 10 -4 4 8 3 16 -1 19 -4 3 -9 -4 -9 -15z"/>
<path d="M10030 2070 c0 -5 5 -10 11 -10 5 0 7 5 4 10 -3 6 -8 10 -11 10 -2 0
-4 -4 -4 -10z"/>
<path d="M9586 1988 c3 -5 10 -6 15 -3 13 9 11 12 -6 12 -8 0 -12 -4 -9 -9z"/>
<path d="M10025 1990 c-3 -6 1 -7 9 -4 18 7 21 14 7 14 -6 0 -13 -4 -16 -10z"/>
<path d="M3630 1910 c0 -5 5 -10 11 -10 5 0 7 5 4 10 -3 6 -8 10 -11 10 -2 0
-4 -4 -4 -10z"/>
<path d="M4070 1916 c0 -2 7 -7 16 -10 8 -3 12 -2 9 4 -6 10 -25 14 -25 6z"/>
<path d="M4155 1879 c-4 -6 -5 -12 -2 -15 2 -3 7 2 10 11 7 17 1 20 -8 4z"/>
<path d="M4067 1869 c7 -7 15 -10 18 -7 3 3 -2 9 -12 12 -14 6 -15 5 -6 -5z"/>
<path d="M9435 1871 c-3 -5 -2 -12 3 -15 5 -3 9 1 9 9 0 17 -3 19 -12 6z"/>
<path d="M9715 1830 c-3 -5 -1 -10 4 -10 6 0 11 5 11 10 0 6 -2 10 -4 10 -3 0
-8 -4 -11 -10z"/>
<path d="M9790 1829 c0 -5 5 -7 10 -4 6 3 10 8 10 11 0 2 -4 4 -10 4 -5 0 -10
-5 -10 -11z"/>
<path d="M4256 1792 c-3 -5 1 -9 9 -9 8 0 12 4 9 9 -3 4 -7 8 -9 8 -2 0 -6 -4
-9 -8z"/>
<path d="M9405 1789 c-3 -4 2 -6 10 -5 21 3 28 13 10 13 -9 0 -18 -4 -20 -8z"/>
<path d="M9086 1712 c-3 -5 1 -9 9 -9 8 0 12 4 9 9 -3 4 -7 8 -9 8 -2 0 -6 -4
-9 -8z"/>
<path d="M9675 1710 c3 -5 8 -10 11 -10 2 0 4 5 4 10 0 6 -5 10 -11 10 -5 0
-7 -4 -4 -10z"/>
<path d="M3910 1686 c0 -2 8 -10 18 -17 15 -13 16 -12 3 4 -13 16 -21 21 -21
13z"/>
<path d="M4473 1655 c0 -8 4 -12 9 -9 5 3 6 10 3 15 -9 13 -12 11 -12 -6z"/>
<path d="M9176 1632 c-3 -5 1 -9 9 -9 8 0 12 4 9 9 -3 4 -7 8 -9 8 -2 0 -6 -4
-9 -8z"/>
<path d="M9487 1589 c7 -7 15 -10 18 -7 3 3 -2 9 -12 12 -14 6 -15 5 -6 -5z"/>
<path d="M9106 1552 c-3 -5 1 -9 9 -9 8 0 15 4 15 9 0 4 -4 8 -9 8 -6 0 -12
-4 -15 -8z"/>
<path d="M9116 1477 c3 -10 9 -15 12 -12 3 3 0 11 -7 18 -10 9 -11 8 -5 -6z"/>
<path d="M4675 1430 c-3 -5 -1 -10 4 -10 6 0 11 5 11 10 0 6 -2 10 -4 10 -3 0
-8 -4 -11 -10z"/>
<path d="M9033 1395 c0 -8 4 -12 9 -9 5 3 6 10 3 15 -9 13 -12 11 -12 -6z"/>
<path d="M9110 1396 c0 -2 7 -7 16 -10 8 -3 12 -2 9 4 -6 10 -25 14 -25 6z"/>
<path d="M4675 1350 c3 -5 8 -10 11 -10 2 0 4 5 4 10 0 6 -5 10 -11 10 -5 0
-7 -4 -4 -10z"/>
<path d="M8755 1350 c-3 -5 -1 -10 4 -10 6 0 11 5 11 10 0 6 -2 10 -4 10 -3 0
-8 -4 -11 -10z"/>
<path d="M5155 1270 c-3 -5 -1 -10 4 -10 6 0 11 5 11 10 0 6 -2 10 -4 10 -3 0
-8 -4 -11 -10z"/>
<path d="M8350 1270 c0 -5 5 -10 11 -10 5 0 7 5 4 10 -3 6 -8 10 -11 10 -2 0
-4 -4 -4 -10z"/>
<path d="M8755 1270 c3 -5 8 -10 11 -10 2 0 4 5 4 10 0 6 -5 10 -11 10 -5 0
-7 -4 -4 -10z"/>
<path d="M8030 1211 c0 -6 4 -13 10 -16 6 -3 7 1 4 9 -7 18 -14 21 -14 7z"/>
<path d="M5155 1190 c3 -5 8 -10 11 -10 2 0 4 5 4 10 0 6 -5 10 -11 10 -5 0
-7 -4 -4 -10z"/>
<path d="M8275 1190 c-3 -5 -1 -10 4 -10 6 0 11 5 11 10 0 6 -2 10 -4 10 -3 0
-8 -4 -11 -10z"/>
<path d="M8350 1189 c0 -5 5 -7 10 -4 6 3 10 8 10 11 0 2 -4 4 -10 4 -5 0 -10
-5 -10 -11z"/>
<path d="M8675 1190 c3 -5 8 -10 11 -10 2 0 4 5 4 10 0 6 -5 10 -11 10 -5 0
-7 -4 -4 -10z"/>
<path d="M5520 1150 c-9 -6 -10 -10 -3 -10 6 0 15 5 18 10 8 12 4 12 -15 0z"/>
<path d="M8526 1152 c-3 -5 1 -9 9 -9 8 0 12 4 9 9 -3 4 -7 8 -9 8 -2 0 -6 -4
-9 -8z"/>
<path d="M7790 1109 c0 -5 5 -7 10 -4 6 3 10 8 10 11 0 2 -4 4 -10 4 -5 0 -10
-5 -10 -11z"/>
<path d="M8275 1110 c3 -5 8 -10 11 -10 2 0 4 5 4 10 0 6 -5 10 -11 10 -5 0
-7 -4 -4 -10z"/>
<path d="M5753 1095 c0 -8 4 -12 9 -9 5 3 6 10 3 15 -9 13 -12 11 -12 -6z"/>
<path d="M5275 1051 c-3 -5 -2 -12 3 -15 5 -3 9 1 9 9 0 17 -3 19 -12 6z"/>
<path d="M5510 989 c0 -5 5 -7 10 -4 6 3 10 8 10 11 0 2 -4 4 -10 4 -5 0 -10
-5 -10 -11z"/>
<path d="M5576 988 c3 -5 10 -6 15 -3 13 9 11 12 -6 12 -8 0 -12 -4 -9 -9z"/>
<path d="M7513 955 c0 -8 4 -12 9 -9 5 3 6 10 3 15 -9 13 -12 11 -12 -6z"/>
<path d="M5955 870 c-3 -5 -1 -10 4 -10 6 0 11 5 11 10 0 6 -2 10 -4 10 -3 0
-8 -4 -11 -10z"/>
<path d="M7330 851 c0 -6 4 -13 10 -16 6 -3 7 1 4 9 -7 18 -14 21 -14 7z"/>
<path d="M7913 835 c0 -8 4 -12 9 -9 5 3 6 10 3 15 -9 13 -12 11 -12 -6z"/>
<path d="M5707 829 c7 -7 15 -10 18 -7 3 3 -2 9 -12 12 -14 6 -15 5 -6 -5z"/>
<path d="M6190 829 c0 -5 5 -7 10 -4 6 3 10 8 10 11 0 2 -4 4 -10 4 -5 0 -10
-5 -10 -11z"/>
<path d="M6060 756 c0 -2 8 -10 18 -17 15 -13 16 -12 3 4 -13 16 -21 21 -21
13z"/>
<path d="M7470 709 c0 -5 5 -7 10 -4 6 3 10 8 10 11 0 2 -4 4 -10 4 -5 0 -10
-5 -10 -11z"/>
<path d="M7555 710 c-3 -5 -1 -10 4 -10 6 0 11 5 11 10 0 6 -2 10 -4 10 -3 0
-8 -4 -11 -10z"/>
<path d="M7630 710 c0 -5 5 -10 11 -10 5 0 7 5 4 10 -3 6 -8 10 -11 10 -2 0
-4 -4 -4 -10z"/>
<path d="M6076 668 c3 -5 10 -6 15 -3 13 9 11 12 -6 12 -8 0 -12 -4 -9 -9z"/>
<path d="M6233 655 c0 -8 4 -12 9 -9 5 3 6 10 3 15 -9 13 -12 11 -12 -6z"/>
<path d="M6026 628 c3 -5 10 -6 15 -3 13 9 11 12 -6 12 -8 0 -12 -4 -9 -9z"/>
<path d="M7353 615 c0 -8 4 -12 9 -9 5 3 6 10 3 15 -9 13 -12 11 -12 -6z"/>
<path d="M6226 592 c-3 -5 1 -9 9 -9 8 0 12 4 9 9 -3 4 -7 8 -9 8 -2 0 -6 -4
-9 -8z"/>
<path d="M7030 590 c0 -5 5 -10 10 -10 6 0 10 5 10 10 0 6 -4 10 -10 10 -5 0
-10 -4 -10 -10z"/>
<path d="M6560 570 c-8 -5 -10 -10 -5 -10 6 0 17 5 25 10 8 5 11 10 5 10 -5 0
-17 -5 -25 -10z"/>
<path d="M6477 523 c-10 -9 -9 -23 1 -23 5 0 9 7 9 15 0 17 -1 18 -10 8z"/>
<path d="M6550 511 c0 -6 4 -12 8 -15 5 -3 9 1 9 9 0 8 -4 15 -9 15 -4 0 -8
-4 -8 -9z"/>
<path d="M7026 508 c3 -5 10 -6 15 -3 13 9 11 12 -6 12 -8 0 -12 -4 -9 -9z"/>
<path d="M7326 508 c3 -5 10 -6 15 -3 13 9 11 12 -6 12 -8 0 -12 -4 -9 -9z"/>
<path d="M7075 470 c-3 -5 -1 -10 4 -10 6 0 11 5 11 10 0 6 -2 10 -4 10 -3 0
-8 -4 -11 -10z"/>
<path d="M7075 390 c3 -5 8 -10 11 -10 2 0 4 5 4 10 0 6 -5 10 -11 10 -5 0 -7
-4 -4 -10z"/>
<path d="M6715 301 c-3 -5 -2 -12 3 -15 5 -3 9 1 9 9 0 17 -3 19 -12 6z"/>
<path d="M6875 270 c-3 -5 -1 -10 4 -10 6 0 11 5 11 10 0 6 -2 10 -4 10 -3 0
-8 -4 -11 -10z"/>
<path d="M6789 73 c-13 -16 -12 -17 4 -4 9 7 17 15 17 17 0 8 -8 3 -21 -13z"/>
</g>
</svg>
